<mxfile host="app.diagrams.net" agent="Mozilla/5.0 (Windows NT 10.0; Win64; x64) AppleWebKit/537.36 (KHTML, like Gecko) Chrome/131.0.0.0 Safari/537.36" version="26.0.6">
  <diagram name="Page-1" id="bDvcypGX-Qz7ygBv5LlQ">
    <mxGraphModel dx="1050" dy="530" grid="1" gridSize="10" guides="1" tooltips="1" connect="1" arrows="1" fold="1" page="1" pageScale="1" pageWidth="850" pageHeight="1100" math="0" shadow="0">
      <root>
        <mxCell id="0" />
        <mxCell id="1" parent="0" />
        <mxCell id="ve5tehwe5ekPfCzmSLh6-1" value="" style="verticalLabelPosition=bottom;verticalAlign=top;html=1;shape=mxgraph.basic.patternFillRect;fillStyle=diag;step=5;fillStrokeWidth=0.2;fillStrokeColor=#dddddd;" vertex="1" parent="1">
          <mxGeometry y="30" width="850" height="60" as="geometry" />
        </mxCell>
        <mxCell id="ve5tehwe5ekPfCzmSLh6-2" value="Nav Bar" style="text;html=1;align=center;verticalAlign=middle;whiteSpace=wrap;rounded=0;fontSize=28;" vertex="1" parent="1">
          <mxGeometry x="340" y="60" width="170" height="30" as="geometry" />
        </mxCell>
        <mxCell id="ve5tehwe5ekPfCzmSLh6-4" value="" style="ellipse;whiteSpace=wrap;html=1;aspect=fixed;" vertex="1" parent="1">
          <mxGeometry x="30" y="20" width="80" height="80" as="geometry" />
        </mxCell>
        <mxCell id="ve5tehwe5ekPfCzmSLh6-5" value="Logo" style="text;html=1;align=center;verticalAlign=middle;whiteSpace=wrap;rounded=0;" vertex="1" parent="1">
          <mxGeometry x="40" y="45" width="60" height="30" as="geometry" />
        </mxCell>
        <mxCell id="ve5tehwe5ekPfCzmSLh6-6" value="Café Italia" style="text;html=1;align=center;verticalAlign=middle;whiteSpace=wrap;rounded=0;fontSize=25;" vertex="1" parent="1">
          <mxGeometry x="130" y="45" width="190" height="30" as="geometry" />
        </mxCell>
        <mxCell id="ve5tehwe5ekPfCzmSLh6-8" value="" style="rounded=1;whiteSpace=wrap;html=1;" vertex="1" parent="1">
          <mxGeometry x="490" y="40" width="100" height="40" as="geometry" />
        </mxCell>
        <mxCell id="ve5tehwe5ekPfCzmSLh6-9" value="" style="rounded=1;whiteSpace=wrap;html=1;" vertex="1" parent="1">
          <mxGeometry x="610" y="40" width="100" height="40" as="geometry" />
        </mxCell>
        <mxCell id="ve5tehwe5ekPfCzmSLh6-10" value="" style="rounded=1;whiteSpace=wrap;html=1;" vertex="1" parent="1">
          <mxGeometry x="740" y="40" width="100" height="40" as="geometry" />
        </mxCell>
        <mxCell id="ve5tehwe5ekPfCzmSLh6-11" value="Home" style="text;html=1;align=center;verticalAlign=middle;whiteSpace=wrap;rounded=0;" vertex="1" parent="1">
          <mxGeometry x="510" y="45" width="60" height="30" as="geometry" />
        </mxCell>
        <mxCell id="ve5tehwe5ekPfCzmSLh6-12" value="Menu" style="text;html=1;align=center;verticalAlign=middle;whiteSpace=wrap;rounded=0;" vertex="1" parent="1">
          <mxGeometry x="630" y="45" width="60" height="30" as="geometry" />
        </mxCell>
        <mxCell id="ve5tehwe5ekPfCzmSLh6-13" value="Coupons" style="text;html=1;align=center;verticalAlign=middle;whiteSpace=wrap;rounded=0;" vertex="1" parent="1">
          <mxGeometry x="760" y="45" width="60" height="30" as="geometry" />
        </mxCell>
        <mxCell id="ve5tehwe5ekPfCzmSLh6-14" value="" style="rounded=0;whiteSpace=wrap;html=1;" vertex="1" parent="1">
          <mxGeometry x="50" y="120" width="760" height="200" as="geometry" />
        </mxCell>
        <mxCell id="ve5tehwe5ekPfCzmSLh6-15" value="Image Carousel" style="text;html=1;align=center;verticalAlign=middle;whiteSpace=wrap;rounded=0;fontSize=26;" vertex="1" parent="1">
          <mxGeometry x="330" y="205" width="220" height="30" as="geometry" />
        </mxCell>
        <mxCell id="ve5tehwe5ekPfCzmSLh6-16" value="" style="triangle;whiteSpace=wrap;html=1;" vertex="1" parent="1">
          <mxGeometry x="720" y="195" width="40" height="50" as="geometry" />
        </mxCell>
        <mxCell id="ve5tehwe5ekPfCzmSLh6-17" value="" style="triangle;whiteSpace=wrap;html=1;direction=west;" vertex="1" parent="1">
          <mxGeometry x="110" y="195" width="40" height="50" as="geometry" />
        </mxCell>
        <mxCell id="ve5tehwe5ekPfCzmSLh6-18" value="&lt;h1 style=&quot;margin-top: 0px;&quot;&gt;&amp;nbsp; &amp;nbsp; &amp;nbsp; &amp;nbsp; &amp;nbsp; &amp;nbsp; &amp;nbsp; &amp;nbsp; &amp;nbsp; &amp;nbsp; &amp;nbsp; &amp;nbsp; &amp;nbsp; &amp;nbsp; &amp;nbsp; &amp;nbsp; &amp;nbsp; &amp;nbsp; &amp;nbsp; &amp;nbsp; &amp;nbsp; About Café Italia&lt;/h1&gt;&lt;p&gt;Lorem ipsum dolor sit amet, consectetur adipisicing elit, sed do eiusmod tempor incididunt ut labore et dolore magna aliqua.&amp;nbsp;&lt;span style=&quot;background-color: transparent; color: light-dark(rgb(0, 0, 0), rgb(255, 255, 255));&quot;&gt;Lorem ipsum dolor sit amet, consectetur adipisicing elit, sed do eiusmod tempor incididunt ut labore et dolore magna aliqua.&lt;/span&gt;&lt;span style=&quot;background-color: transparent; color: light-dark(rgb(0, 0, 0), rgb(255, 255, 255));&quot;&gt;Lorem ipsum dolor sit amet, consectetur adipisicing elit, sed do eiusmod tempor incididunt ut labore et dolore magna aliqua.&lt;/span&gt;&lt;span style=&quot;background-color: transparent; color: light-dark(rgb(0, 0, 0), rgb(255, 255, 255));&quot;&gt;Lorem ipsum dolor sit amet, consectetur adipisicing elit, sed do eiusmod tempor incididunt ut labore et dolore magna aliqua.&lt;/span&gt;&lt;span style=&quot;background-color: transparent; color: light-dark(rgb(0, 0, 0), rgb(255, 255, 255));&quot;&gt;Lorem ipsum dolor sit amet, consectetur adipisicing elit, sed do eiusmod tempor incididunt ut labore et dolore magna aliqua.&lt;/span&gt;&lt;/p&gt;" style="text;html=1;whiteSpace=wrap;overflow=hidden;rounded=0;" vertex="1" parent="1">
          <mxGeometry x="40" y="350" width="780" height="120" as="geometry" />
        </mxCell>
        <mxCell id="ve5tehwe5ekPfCzmSLh6-19" value="" style="whiteSpace=wrap;html=1;aspect=fixed;" vertex="1" parent="1">
          <mxGeometry x="30" y="560" width="190" height="190" as="geometry" />
        </mxCell>
        <mxCell id="ve5tehwe5ekPfCzmSLh6-20" value="&lt;h1 style=&quot;margin-top: 0px;&quot;&gt;A Love Story Turned Cafe&lt;/h1&gt;&lt;p&gt;&lt;br&gt;&lt;/p&gt;" style="text;html=1;whiteSpace=wrap;overflow=hidden;rounded=0;" vertex="1" parent="1">
          <mxGeometry x="270" y="500" width="320" height="60" as="geometry" />
        </mxCell>
        <mxCell id="ve5tehwe5ekPfCzmSLh6-21" value="Profile&lt;div&gt;Picture&lt;/div&gt;&lt;div&gt;Chef Mike&lt;/div&gt;" style="text;html=1;align=center;verticalAlign=middle;whiteSpace=wrap;rounded=0;fontSize=23;" vertex="1" parent="1">
          <mxGeometry x="40" y="615" width="160" height="80" as="geometry" />
        </mxCell>
        <mxCell id="ve5tehwe5ekPfCzmSLh6-22" value="" style="whiteSpace=wrap;html=1;aspect=fixed;" vertex="1" parent="1">
          <mxGeometry x="30" y="780" width="190" height="190" as="geometry" />
        </mxCell>
        <mxCell id="ve5tehwe5ekPfCzmSLh6-23" value="Profile&lt;div&gt;Picture&lt;/div&gt;&lt;div&gt;Chef Alex&lt;/div&gt;" style="text;html=1;align=center;verticalAlign=middle;whiteSpace=wrap;rounded=0;fontSize=23;" vertex="1" parent="1">
          <mxGeometry x="45" y="835" width="160" height="80" as="geometry" />
        </mxCell>
        <mxCell id="ve5tehwe5ekPfCzmSLh6-25" value="" style="rounded=1;whiteSpace=wrap;html=1;" vertex="1" parent="1">
          <mxGeometry x="280" y="560" width="490" height="200" as="geometry" />
        </mxCell>
        <mxCell id="ve5tehwe5ekPfCzmSLh6-27" value="" style="rounded=1;whiteSpace=wrap;html=1;" vertex="1" parent="1">
          <mxGeometry x="280" y="780" width="490" height="200" as="geometry" />
        </mxCell>
        <mxCell id="ve5tehwe5ekPfCzmSLh6-28" value="Paragraph about Chef Mike" style="text;html=1;align=center;verticalAlign=middle;whiteSpace=wrap;rounded=0;fontSize=27;" vertex="1" parent="1">
          <mxGeometry x="470" y="640" width="60" height="30" as="geometry" />
        </mxCell>
        <mxCell id="ve5tehwe5ekPfCzmSLh6-30" value="Paragraph about Chef Alex" style="text;html=1;align=center;verticalAlign=middle;whiteSpace=wrap;rounded=0;fontSize=27;" vertex="1" parent="1">
          <mxGeometry x="490" y="850" width="60" height="30" as="geometry" />
        </mxCell>
        <mxCell id="ve5tehwe5ekPfCzmSLh6-31" value="" style="rounded=1;whiteSpace=wrap;html=1;" vertex="1" parent="1">
          <mxGeometry x="40" y="1070" width="260" height="250" as="geometry" />
        </mxCell>
        <mxCell id="ve5tehwe5ekPfCzmSLh6-32" value="Hours of operation, address and contact information" style="text;html=1;align=center;verticalAlign=middle;whiteSpace=wrap;rounded=0;fontSize=22;" vertex="1" parent="1">
          <mxGeometry x="130" y="1160" width="60" height="30" as="geometry" />
        </mxCell>
        <mxCell id="ve5tehwe5ekPfCzmSLh6-33" value="" style="whiteSpace=wrap;html=1;aspect=fixed;" vertex="1" parent="1">
          <mxGeometry x="420" y="1040" width="310" height="310" as="geometry" />
        </mxCell>
        <mxCell id="ve5tehwe5ekPfCzmSLh6-34" value="Google&amp;nbsp;&lt;div&gt;Maps&lt;/div&gt;" style="text;html=1;align=center;verticalAlign=middle;whiteSpace=wrap;rounded=0;fontSize=38;" vertex="1" parent="1">
          <mxGeometry x="545" y="1170" width="60" height="30" as="geometry" />
        </mxCell>
      </root>
    </mxGraphModel>
  </diagram>
</mxfile>
